# xmcd
#
# Track frame offsets: 
#        150
#        6846
#        25484
#        44138
#        71360
#        91518
#        112820
#        135821
#        138657
#        154412
#        180272
#        206905
#        240905
#        264760
#        291492
#
# Disc length: 3948 seconds
#
# Revision: 0
# Processed by: cddbd v1.5.1PL0 Copyright (c) Steve Scherf et al.
# Submitted via: ExactAudioCopy v0.90b4
#
DISCID=c70f6a0f
DTITLE=Reno Jones - Shrunken Heads
DYEAR=2005
DGENRE=R&B
TTITLE0=Shrunken Head
TTITLE1=Tired of Feelin' Blue
TTITLE2=Take a Look at Me Now
TTITLE3=I Thought I Had It Bad (Until I Met You)
TTITLE4=I Plead Guilty
TTITLE5=Three Legged Man
TTITLE6=Temptress
TTITLE7=Shrunken Heart
TTITLE8=Jezebelle
TTITLE9=No Warning
TTITLE10=Sure Takes Care of Me
TTITLE11=I Saw You
TTITLE12=Sometimes Love Is Hard to Find
TTITLE13=Down to the Bar
TTITLE14=Shrunken Head Reprise
EXTD=
EXTT0=
EXTT1=
EXTT2=
EXTT3=
EXTT4=
EXTT5=
EXTT6=
EXTT7=
EXTT8=
EXTT9=
EXTT10=
EXTT11=
EXTT12=
EXTT13=
EXTT14=
PLAYORDER=
